<svg width="1125" height="480" viewBox="0 0 1125 480" fill="none" xmlns="http://www.w3.org/2000/svg">
<path d="M240 80C328.366 80 400 151.634 400 240C400 243.519 399.886 247.012 399.663 250.475L351.763 247.379C351.92 244.946 352 242.486 352 240C352 178.144 301.856 128 240 128C178.144 128 128 178.144 128 240C128 242.486 128.08 244.946 128.237 247.379L80.3374 250.475C80.1136 247.012 80 243.519 80 240C80 151.634 151.634 80 240 80Z" fill="black"/>
<path d="M83.0454 271.226L130.133 261.911C131.088 266.737 132.352 271.447 133.905 276.023L88.4516 291.449C86.2252 284.889 84.4128 278.137 83.0454 271.226Z" fill="black"/>
<path d="M96.4682 310.782L139.502 289.519C141.671 293.91 144.123 298.143 146.836 302.195L106.95 328.899C103.078 323.115 99.5726 317.065 96.4682 310.782Z" fill="black"/>
<path d="M119.704 345.496L155.779 313.833C159.012 317.517 162.483 320.988 166.167 324.221L134.504 360.297C129.255 355.69 124.31 350.745 119.704 345.496Z" fill="black"/>
<path d="M151.102 373.05L177.805 333.164C181.857 335.877 186.09 338.329 190.481 340.498L169.218 383.532C162.935 380.427 156.885 376.922 151.102 373.05Z" fill="black"/>
<path d="M188.551 391.548L203.977 346.095C208.553 347.648 213.263 348.912 218.089 349.867L208.774 396.955C201.863 395.587 195.111 393.775 188.551 391.548Z" fill="black"/>
<path d="M229.525 399.663L232.621 351.763C235.054 351.92 237.514 352 240 352C242.486 352 244.946 351.92 247.379 351.763L250.475 399.663C247.012 399.886 243.519 400 240 400C236.481 400 232.988 399.886 229.525 399.663Z" fill="black"/>
<path d="M271.226 396.955L261.911 349.867C266.737 348.912 271.447 347.648 276.023 346.095L291.449 391.548C284.889 393.775 278.137 395.587 271.226 396.955Z" fill="black"/>
<path d="M310.782 383.532L289.519 340.498C293.91 338.329 298.143 335.877 302.195 333.164L328.899 373.05C323.115 376.922 317.065 380.427 310.782 383.532Z" fill="black"/>
<path d="M345.496 360.296L313.833 324.221C317.517 320.988 320.988 317.517 324.221 313.833L360.297 345.496C355.69 350.745 350.745 355.69 345.496 360.296Z" fill="black"/>
<path d="M373.05 328.898L333.164 302.195C335.877 298.143 338.329 293.91 340.498 289.519L383.532 310.782C380.427 317.065 376.922 323.115 373.05 328.898Z" fill="black"/>
<path d="M391.548 291.449L346.095 276.023C347.648 271.447 348.912 266.737 349.867 261.911L396.955 271.226C395.587 278.137 393.775 284.889 391.548 291.449Z" fill="black"/>
<text x="450" y="304" class="bridge-font" font-family="inter" font-size="175px" fill="black">Bridge</text>
</svg>
